<svg width="274" height="76" viewBox="0 0 274 76" fill="none" xmlns="http://www.w3.org/2000/svg">
<path d="M101.885 64.8526C101.028 64.5218 100.65 64.2353 100.65 63.6535C100.65 63.2311 100.969 62.7231 101.823 62.7231C102.387 62.7231 102.8 62.9003 102.995 63.0185L103.217 62.3658C102.948 62.2063 102.478 62.0586 101.849 62.0586C100.641 62.0586 99.8409 62.7793 99.8409 63.7451C99.8409 64.6134 100.47 65.145 101.483 65.5172C102.322 65.8302 102.656 66.1699 102.656 66.7429C102.656 67.372 102.174 67.8032 101.353 67.8032C100.801 67.8032 100.284 67.6319 99.9236 67.3986L99.7109 68.072C100.042 68.2905 100.7 68.4766 101.3 68.4766C102.765 68.4766 103.468 67.6378 103.468 66.6779C103.465 65.7653 102.939 65.2602 101.885 64.8526Z" fill="#273045"/>
<path d="M110.918 62.1582H110.105V68.3754H113.57V67.7019H110.918V62.1582Z" fill="#273045"/>
<path d="M120.812 65.4603H123.219V64.7957H120.812V62.8287H123.367V62.1553H120V68.3724H123.503V67.699H120.812V65.4603Z" fill="#273045"/>
<path d="M130.89 65.4603H133.297V64.7957H130.89V62.8287H133.445V62.1553H130.078V68.3724H133.581V67.699H130.89V65.4603Z" fill="#273045"/>
<path d="M143.456 62.6292C143.084 62.2984 142.505 62.1123 141.714 62.1123C141.07 62.1123 140.559 62.1684 140.172 62.2334V68.3767H140.975V65.884C141.158 65.9312 141.38 65.9401 141.619 65.9401C142.402 65.9401 143.084 65.7097 143.518 65.2578C143.834 64.9329 144 64.4928 144 63.9287C144 63.3794 143.787 62.9245 143.456 62.6292ZM141.637 65.2962C141.371 65.2962 141.149 65.2785 140.975 65.2342V62.8182C141.114 62.7798 141.38 62.7562 141.728 62.7562C142.608 62.7562 143.196 63.1519 143.196 63.9819C143.199 64.8177 142.609 65.2962 141.637 65.2962Z" fill="#273045"/>
<path d="M161.023 62.732C161.539 62.732 161.974 62.8442 162.269 62.9919L162.47 62.3362C162.257 62.2269 161.761 62.0586 160.996 62.0586C159.07 62.0586 157.75 63.367 157.75 65.3252C157.75 67.372 159.058 68.4795 160.81 68.4795C161.569 68.4795 162.166 68.3319 162.452 68.1842L162.295 67.5403C161.971 67.6939 161.474 67.7943 160.972 67.7943C159.469 67.7943 158.595 66.8256 158.595 65.2927C158.598 63.6624 159.566 62.732 161.023 62.732Z" fill="#273045"/>
<path d="M171.326 62.0498C169.669 62.0498 168.449 63.3405 168.449 65.3164C168.449 67.1978 169.592 68.4767 171.243 68.4767C172.832 68.4767 174.129 67.3337 174.129 65.2012C174.129 63.3494 173.03 62.0498 171.326 62.0498ZM171.288 67.8239C170.018 67.8239 169.297 66.6337 169.297 65.2957C169.297 63.9401 169.961 62.7055 171.296 62.7055C172.634 62.7055 173.281 63.9932 173.281 65.2396C173.281 66.6514 172.564 67.8239 171.288 67.8239Z" fill="#273045"/>
<path d="M184.632 62.1582V64.7603C184.632 65.729 184.65 66.4851 184.724 67.315L184.694 67.3239C184.408 66.6889 184.041 66.0362 183.587 65.3037L181.605 62.1582H180.719V68.3754H181.478V65.7172C181.478 64.6864 181.466 63.9362 181.422 63.1535L181.451 63.1447C181.755 63.8181 182.172 64.5269 182.606 65.221L184.579 68.3754H185.388V62.1582H184.632Z" fill="#273045"/>
<path d="M194.197 64.8526C193.341 64.5218 192.963 64.2353 192.963 63.6535C192.963 63.2311 193.282 62.7231 194.135 62.7231C194.699 62.7231 195.113 62.9003 195.308 63.0185L195.529 62.3658C195.26 62.2063 194.788 62.0586 194.162 62.0586C192.954 62.0586 192.153 62.7793 192.153 63.7451C192.153 64.6134 192.782 65.145 193.796 65.5172C194.634 65.8302 194.968 66.1699 194.968 66.7429C194.968 67.372 194.487 67.8032 193.666 67.8032C193.113 67.8032 192.596 67.6319 192.236 67.3986L192.023 68.072C192.354 68.2905 193.013 68.4766 193.612 68.4766C195.077 68.4766 195.78 67.6378 195.78 66.6779C195.777 65.7653 195.252 65.2602 194.197 64.8526Z" fill="#273045"/>
<path d="M206.19 65.8501C206.19 67.2146 205.59 67.823 204.677 67.823C203.844 67.823 203.23 67.2294 203.23 65.8501V62.1582H202.418V65.8206C202.418 67.7581 203.378 68.4787 204.648 68.4787C205.995 68.4787 207.002 67.7049 207.002 65.7969V62.1611H206.19V65.8501Z" fill="#273045"/>
<path d="M214.738 62.1582H213.926V68.3754H217.396V67.7019H214.738V62.1582Z" fill="#273045"/>
<path d="M222.309 62.8434H224.202V68.3754H225.011V62.8434H226.913V62.1582H222.309V62.8434Z" fill="#273045"/>
<path d="M233.949 62.1582H233.137V68.3754H233.949V62.1582Z" fill="#273045"/>
<path d="M244.805 62.1582V64.7603C244.805 65.729 244.823 66.4851 244.897 67.315L244.87 67.3239C244.583 66.6889 244.214 66.0362 243.762 65.3037L241.781 62.1582H240.895V68.3754H241.648V65.7172C241.648 64.6864 241.639 63.9362 241.592 63.1535L241.621 63.1447C241.925 63.8181 242.342 64.5269 242.776 65.221L244.749 68.3754H245.561V62.1582H244.805Z" fill="#273045"/>
<path d="M255.2 65.1084V65.7552H256.455V67.607C256.272 67.6986 255.911 67.7724 255.386 67.7724C253.93 67.7724 252.984 66.8391 252.984 65.2619C252.984 63.7025 253.974 62.7603 255.486 62.7603C256.115 62.7603 256.529 62.8696 256.862 63.0291L257.063 62.3734C256.794 62.2435 256.221 62.0869 255.504 62.0869C253.419 62.0869 252.137 63.4426 252.137 65.2944C252.137 66.2632 252.467 67.0961 253.005 67.61C253.611 68.1918 254.387 68.4311 255.329 68.4311C256.168 68.4311 256.886 68.2302 257.249 68.0885V65.0995L255.2 65.1084Z" fill="#273045"/>
<path d="M102.481 38.2791C101.896 38.6394 101.001 38.8639 99.7902 39.0411C104.185 27.9181 108.311 13.9775 101.539 13.9775C96.4291 13.9775 91.541 18.5053 87.4593 24.4714C83.1117 30.7919 82.2581 36.126 82.2581 38.5035C82.2581 40.4351 83.3332 42.1807 84.4112 42.6296C85.0817 42.9427 85.6192 42.538 84.9015 42.0448C84.1838 41.6402 83.0615 40.701 83.0615 38.6365C83.0615 35.9901 85.0344 30.3873 88.6673 25.006C91.8512 20.2981 97.7671 15.0526 101.403 15.0526C105.169 15.0526 105.662 22.5841 98.532 39.2656C94.0043 40.0719 83.4188 43.3473 76.7852 49.7564C66.8348 59.3967 71.2711 68.275 77.9962 68.275C86.4728 68.275 94.719 51.5049 99.0696 40.8339L99.3856 40.0275C101.042 39.7115 102.118 39.3128 102.838 38.7753C103.376 38.3647 103.243 37.8272 102.481 38.2791ZM77.8662 67.4687C72.6651 67.4687 69.304 58.4546 77.5502 50.4298C83.7408 44.4667 92.4359 41.3271 98.086 40.2491C90.5073 57.5567 83.7821 67.4687 77.8662 67.4687Z" fill="#273045"/>
<path d="M142.795 18.1895C142.887 17.7406 142.213 16.8457 141.812 16.8457C141.407 16.8457 141.227 17.4275 139.434 22.2713L138.359 25.1864C136.433 28.3703 133.787 32.6736 131.454 36.6638C130.916 36.4836 130.287 36.3507 129.749 36.3507C129.298 36.3507 128.855 36.4187 128.435 36.5457H128.432C128.276 36.522 128.084 36.5368 127.998 36.5723C123.919 38.7726 115.31 45.1817 112.037 45.1817C111.5 45.1817 111.054 44.6856 111.452 43.0729C111.857 41.546 112.619 39.6646 113.157 38.4979C113.786 37.1541 114.007 36.8381 113.47 36.7051C112.841 36.5693 111.765 37.9604 110.061 39.7975C109.122 40.8283 106.609 42.9371 105.894 42.9371C105.669 42.9371 105.489 42.624 105.625 41.9063C105.717 41.546 106.027 40.5625 106.523 39.576C107.152 38.365 108.227 37.4672 108.227 37.1127C108.227 36.9769 108.136 36.5722 107.69 36.6165C107.241 36.7081 106.387 37.9191 105.85 39.13C105.448 39.9806 104.907 41.2802 104.819 42.3139C104.727 43.4805 105.088 43.8379 105.717 43.8379C106.523 43.8379 109.078 41.8649 110.602 40.2523C111.455 39.3545 111.949 38.7756 112.259 38.4123C111.63 39.6232 110.915 41.5519 110.602 42.9873C110.111 45.0961 110.602 46.0796 111.949 46.0796C114.754 46.0796 120.644 42.2223 125.036 39.2718C125.039 39.2688 125.039 39.2688 125.042 39.2688C125.042 39.2718 125.039 39.2718 125.039 39.2747C124.026 40.7781 123.429 42.6447 123.429 44.3341C123.429 45.7695 124.191 46.7973 124.909 46.7973C125.762 46.7973 126.436 45.7695 131.722 37.4731L133.249 38.1435C133.61 38.3237 133.831 38.0106 133.562 37.7418C133.294 37.5174 132.803 37.2043 132.127 36.8883C133.875 34.109 135.668 31.1053 137.284 28.3703C135.848 32.6293 134.324 37.4701 132.933 42.627C130.736 50.7846 130.379 54.4174 131.052 54.7777C131.542 55.0465 132.038 54.3258 131.681 54.2372C131.276 54.1486 131.457 50.8761 133.654 43.0759C135.671 35.8575 138.005 29.3096 139.842 23.7953C141.584 20.6114 142.748 18.414 142.795 18.1895ZM124.903 45.9881C124.501 45.9881 124.454 45.0459 124.454 44.2839C124.454 41.3688 126.876 37.2014 130.237 37.2014C130.506 37.2014 130.774 37.2457 131.046 37.2929C129.433 40.0279 125.399 45.9881 124.903 45.9881Z" fill="#273045"/>
<path d="M141.847 31.0096C142.072 31.0096 142.745 30.2948 142.745 29.8873C142.745 29.4413 142.341 29.2168 142.163 29.2168C141.942 29.2168 141.398 29.71 141.398 30.0261C141.398 30.2948 141.579 31.0096 141.847 31.0096Z" fill="#273045"/>
<path d="M159.876 24.242C155.437 24.242 154.852 24.1091 153.284 24.1091C154.138 20.9695 155.08 18.5033 155.168 18.3704C155.665 17.2953 155.842 18.0573 155.975 17.5198C156.066 17.1151 155.795 16.04 155.437 16.04C154.938 16.04 153.978 17.5257 152.88 21.0492C152.88 21.0522 152.88 21.0522 152.877 21.0551C152.401 21.9707 151.917 23.0074 151.429 24.1031L145.661 24.0618C144.359 24.0618 144.049 23.9289 143.6 23.6601C143.239 23.4356 141.984 23.9732 142.073 24.3749C142.244 25.0276 143.009 25.004 151.028 25.004H151.031C149.56 28.3532 148.053 32.0688 146.648 34.4227C143.824 39.1306 141.402 41.774 140.596 41.774C140.552 41.774 140.283 41.3281 140.552 39.8483C140.596 39.488 141.089 37.6066 141.089 37.2936C141.089 36.8889 140.416 36.3957 139.878 36.6201C139.654 36.7117 139.787 37.2492 139.787 37.518C139.831 37.6952 139.609 39.491 139.609 39.8956C139.609 41.7327 140.058 42.4061 140.593 42.4061C141.981 42.4061 144.494 39.6711 147.138 35.1877C148.721 32.5089 150.345 28.4655 151.772 25.1221C151.465 26.4364 151.161 27.8777 150.856 29.4874C149.51 36.7058 148.839 46.1246 148.75 48.8595C148.703 52.1763 149.111 53.9691 149.69 53.8362C150.319 53.7476 149.961 53.5674 149.737 51.8633C149.468 49.7131 149.914 43.3453 150.275 40.7905C150.859 36.0826 151.53 32.181 151.931 29.9836C152.2 28.3267 152.605 26.6225 153.007 25.0069H159.735C163.099 25.0069 165.296 25.0542 165.205 24.5137C165.075 24.0204 164 24.242 159.876 24.242Z" fill="#273045"/>
<path d="M184.176 38.41C183.322 38.7704 182.472 40.0669 183.098 39.8454C186.462 38.5459 192.425 37.1105 193.456 37.1105C194.487 37.1105 194.98 37.2906 194.98 37.9611C194.98 41.8184 184.217 53.7447 175.611 53.7447C171.127 53.7447 168.661 51.503 168.661 45.0909C168.661 38.9033 171.889 31.2802 176.376 26.0348C181.308 20.2961 186.686 16.9764 191.214 16.9764C192.156 16.9764 193.323 17.0679 193.323 18.4118C193.323 19.7556 192.652 21.1024 191.752 22.6707C191.391 23.2555 192.02 23.4327 192.649 22.8066C193.279 22.0918 194.129 19.6227 194.129 18.143C194.129 16.7076 192.694 16.0342 190.812 16.0342C186.057 16.0342 179.825 19.7556 175.386 25.4057C169.47 32.9815 167.586 39.2606 167.586 45.0879C167.586 50.2448 169.65 55.1299 175.611 55.1299C184.173 55.1299 195.922 43.4694 195.922 37.7307C195.922 34.9603 189.424 36.124 184.176 38.41Z" fill="#273045"/>
<path d="M204.359 31.0096C204.584 31.0096 205.257 30.2948 205.257 29.8873C205.26 29.4413 204.855 29.2168 204.675 29.2168C204.451 29.2168 203.91 29.71 203.91 30.0261C203.91 30.2948 204.09 31.0096 204.359 31.0096Z" fill="#273045"/>
<path d="M211.404 48.7712C212.163 40.522 214.139 31.3277 214.857 27.9666C215.71 23.9764 216.921 19.5373 217.01 19.3128C217.5 18.2378 218.085 17.2956 218.218 16.758C218.351 16.3534 218.262 15.2783 217.857 15.2783C217.332 15.2783 216.584 16.5838 215.359 21.1115C215.359 21.1115 215.359 21.1115 215.359 21.1145C213.353 25.0013 211.15 31.0885 209.162 34.426C206.339 39.1339 203.917 41.7802 203.111 41.7802C203.063 41.7802 202.794 41.3313 203.063 39.8545C203.111 39.4942 203.601 37.6128 203.601 37.2997C203.601 36.8951 202.93 36.4019 202.39 36.6264C202.168 36.7179 202.298 37.2554 202.298 37.5242C202.346 37.7014 202.121 39.4972 202.121 39.8988C202.121 41.7389 202.573 42.4123 203.111 42.4123C204.499 42.4123 207.009 39.6773 209.658 35.1939C211.289 32.4323 212.963 28.2206 214.422 24.8182C214.233 25.6127 214.033 26.4662 213.826 27.3877C212.39 33.6226 211.091 40.4807 210.553 48.4168C210.285 51.7779 210.731 53.485 211.315 53.4378C211.761 53.3905 211.044 52.8943 211.404 48.7712Z" fill="#273045"/>
<path d="M261.077 33.391C261.345 33.4383 261.93 32.9421 262.063 32.5375C262.155 32.1358 261.886 31.5982 261.481 31.5067C261.213 31.4624 260.852 31.9586 260.767 32.2273C260.675 32.5375 260.855 33.2995 261.077 33.391Z" fill="#273045"/>
<path d="M273.588 36.5718C273.319 36.5718 269.958 38.0072 265.563 39.5785C261.75 40.9223 260.498 41.0582 259.913 41.0582C259.689 41.0582 259.464 40.7894 259.509 40.2489C259.6 39.5341 259.733 38.6806 260.407 37.2924C260.678 36.7992 260.407 36.5275 260.185 36.5718C259.842 36.6338 259.609 36.7372 259.441 36.8907L252.872 39.6228C250.63 40.5649 247.715 41.4599 246.909 41.2797C246.504 41.2354 246.46 40.4734 246.549 39.2181C246.549 38.3203 246.011 37.7827 245.338 37.7827C244.664 37.7827 243.769 38.276 242.467 38.9494C241.569 39.3953 240.269 40.0244 240.137 40.0244C240.001 40.0244 239.959 39.9329 240.001 39.8443C240.089 39.4839 240.674 37.9186 240.763 37.065C240.807 36.6604 240.671 36.5718 240.402 36.5718C240.269 36.5954 240.107 36.6102 239.977 36.684C239.974 36.684 239.974 36.684 239.971 36.684C239.853 36.6899 239.744 36.7135 239.682 36.746C236.947 38.2257 227.844 42.4434 224.707 42.4434C223.541 42.4434 222.734 41.8586 222.734 41.0966C222.734 40.0658 223.183 39.2595 223.183 38.9021C223.183 38.589 222.782 38.4975 222.602 38.4975C222.061 38.4975 220.945 39.1266 219.237 39.9329C217.982 40.562 217.22 40.875 216.818 40.875C216.683 40.875 216.638 40.8278 216.638 40.7392C216.638 40.3789 217.536 39.0823 218.7 38.3173C219.955 37.4667 220.853 37.1093 221.302 37.1093C221.792 37.1093 221.931 38.0072 222.377 38.0072C222.823 38.0072 222.2 36.3916 221.166 36.3916C220.407 36.3916 219.509 36.6161 218.074 37.7384C216.37 38.9936 215.832 40.1573 215.832 41.0109C215.832 41.2797 216.281 41.6843 216.91 41.6843C217.359 41.6843 218.791 41.0995 220.094 40.3375C221.529 39.5785 221.798 39.5312 221.934 39.6671C222.026 39.7557 221.842 40.2046 221.842 41.1468C221.842 42.0889 222.472 43.3885 224.666 43.3885C227.507 43.3885 236.371 39.4278 239.699 37.4047C239.442 38.7013 238.967 39.9595 238.967 40.1573C238.967 40.5177 239.773 40.8307 240.045 40.8307C240.447 40.8307 242.913 39.5755 243.633 39.2181C244.484 38.7692 244.977 38.589 245.199 38.7249C245.335 38.8164 245.382 39.0852 245.335 39.7557C245.243 41.0109 245.471 41.9501 246.41 42.1332C247.757 42.402 250.805 41.4185 253.138 40.4291C255.123 39.5666 257.234 38.7072 258.947 37.895C258.947 37.895 258.95 37.8949 258.95 37.892V37.895C258.72 38.6481 258.569 39.6789 258.569 40.2932C258.569 41.008 258.93 41.8172 260.093 41.8172C260.811 41.8172 261.842 41.5957 265.924 40.2046C271.081 38.4561 273.231 37.2452 273.768 37.1123C273.993 37.0207 273.815 36.5718 273.588 36.5718Z" fill="#273045"/>
<path d="M54.9759 55.6412C54.9759 55.6412 55.1694 62.2216 52.0728 63.9635C48.9761 65.7054 46.2665 65.5118 46.2665 65.5118C46.2665 65.5118 47.6213 75.1889 36.2023 75.576C36.2023 75.576 29.0413 77.1243 30.009 69.5762L29.92 40.9766C29.92 40.9766 30.9767 37.4483 24.5898 32.2227C24.5898 32.2227 34.8476 25.4487 37.9442 32.8033C37.9442 32.8033 37.4604 35.7277 42.5892 34.7387C42.5892 34.7387 50.9115 35.1258 53.234 41.5127C55.5565 47.8995 54.9759 55.6412 54.9759 55.6412Z" fill="#E7D7C9"/>
<path d="M46.1674 3.89544H50.2666C50.3402 3.89544 50.377 3.94189 50.3925 3.96899C50.4079 3.99608 50.4273 4.05221 50.3886 4.11414L46.5429 10.3268C46.33 10.6694 46.3203 11.101 46.5177 11.4532C46.7132 11.8055 47.0868 12.0242 47.4893 12.0242H51.2015C51.4686 12.0242 51.6853 11.8074 51.6853 11.5403C51.6853 11.2732 51.4686 11.0565 51.2015 11.0565H47.4893C47.4158 11.0565 47.379 11.01 47.3635 10.9829C47.348 10.9558 47.3287 10.8997 47.3674 10.8378L51.2131 4.6251C51.426 4.28253 51.4356 3.85093 51.2382 3.49868C51.0428 3.14644 50.6692 2.92773 50.2666 2.92773H46.1674C45.9004 2.92773 45.6836 3.1445 45.6836 3.41159C45.6836 3.67868 45.9004 3.89544 46.1674 3.89544Z" fill="#273045"/>
<path d="M38.4253 9.70306L41.7252 9.69145L38.8104 14.4003C38.6265 14.6964 38.6188 15.068 38.7872 15.3719C38.9556 15.6758 39.2768 15.8654 39.6252 15.8654H42.5864C42.8535 15.8654 43.0703 15.6487 43.0703 15.3816C43.0703 15.1145 42.8535 14.8977 42.5864 14.8977L39.633 14.9093L42.5477 10.2005C42.7316 9.90434 42.7393 9.53274 42.5709 9.22888C42.4006 8.92502 42.0793 8.73535 41.7329 8.73535H38.4253C38.1582 8.73535 37.9414 8.95212 37.9414 9.21921C37.9414 9.48629 38.1582 9.70306 38.4253 9.70306Z" fill="#273045"/>
<path d="M31.2671 16.4882H33.7851L31.7374 19.7978C31.5767 20.0552 31.569 20.3823 31.718 20.6474C31.8651 20.9126 32.1457 21.0771 32.4496 21.0771H34.6541C34.9211 21.0771 35.1379 20.8603 35.1379 20.5932C35.1379 20.3261 34.9211 20.1094 34.6541 20.1094H32.6818L34.7315 16.7998C34.8921 16.5424 34.8979 16.2153 34.7508 15.9502C34.6037 15.685 34.3231 15.5205 34.0192 15.5205H31.269C31.0019 15.5205 30.7852 15.7373 30.7852 16.0044C30.7852 16.2714 31 16.4882 31.2671 16.4882Z" fill="#273045"/>
<path d="M37.8179 35.2053C37.8353 35.3814 37.8508 35.5634 37.8604 35.7492C38.0172 38.4549 37.9069 41.2302 37.7985 43.9127C37.7675 44.6908 37.7366 45.4669 37.7114 46.241C37.7037 46.5081 37.9127 46.7307 38.1798 46.7404C38.1856 46.7404 38.1895 46.7404 38.1953 46.7404C38.4546 46.7404 38.6694 46.5333 38.6791 46.272C38.7043 45.4998 38.7353 44.7256 38.7662 43.9514C38.8746 41.2457 38.9849 38.4471 38.8262 35.693C38.8185 35.575 38.8088 35.4608 38.7991 35.3447C40.6242 35.0214 42.608 35.0311 44.5744 35.3853C47.0711 35.8343 49.3781 37.0827 51.0677 38.8961C52.8289 40.787 53.8741 43.2141 54.3599 46.5333C54.4857 47.3926 54.5592 48.2597 54.5979 49.1306C54.5844 49.4461 54.5844 49.2525 54.6153 49.5951C54.6773 51.6989 54.5437 53.8201 54.4121 55.893C54.3715 56.5355 54.3308 57.18 54.296 57.8206C54.2805 58.0877 54.4857 58.3161 54.7528 58.3297C54.7624 58.3297 54.7702 58.3297 54.7799 58.3297C55.0353 58.3297 55.2482 58.1303 55.2618 57.8729C55.2966 57.2342 55.3372 56.5936 55.3779 55.953C55.5114 53.8434 55.6489 51.6873 55.5811 49.5293C59.1384 46.8004 61.8054 43.0147 63.5047 38.2652C63.9634 36.9859 63.9576 35.3156 62.568 34.466C61.3351 33.7131 60.3809 34.2724 59.5371 34.766C59.4558 34.8143 59.3726 34.8627 59.2874 34.9111C58.9604 35.0989 58.6313 35.2885 58.3042 35.4763C56.334 36.6104 54.2999 37.7794 52.2038 38.7219C52.0645 38.5555 51.9232 38.3929 51.7761 38.2342C49.9452 36.2678 47.4485 34.9169 44.7467 34.4292C42.6893 34.0576 40.6068 34.0441 38.6869 34.3789C38.2727 31.7874 37.0921 30.1055 35.1586 29.3758C33.8038 28.8649 32.18 28.8223 30.4575 29.2539C28.5201 29.7397 26.4647 30.6222 24.7538 31.6945C24.4441 31.3654 24.1403 31.0325 23.8558 30.69C22.321 28.8417 21.063 26.9101 20.1127 24.9515C17.5502 19.6639 16.7218 13.6912 17.7805 8.13657C18.0263 6.84178 18.3747 5.56053 18.814 4.32767C18.876 4.15542 18.9592 3.96188 19.0463 3.75866C19.4217 2.88772 19.9365 1.69744 19.2321 0.712317C18.7579 0.048469 17.9624 -0.160556 16.9928 0.12395C14.9238 0.731671 13.0891 2.06324 11.5311 3.26513C9.86853 4.54637 8.33953 5.98245 6.99055 7.53079C5.16545 9.62491 3.66358 11.9822 2.52943 14.5389C1.62172 16.5827 0.946257 18.7562 0.51853 20.9993C0.212734 22.6038 0.042415 24.1986 0.00757752 25.7431C-0.00403497 26.2908 -0.00984878 26.943 0.0482137 27.6069C0.0714387 27.8739 0.30564 28.0694 0.572728 28.0462C0.839815 28.023 1.03527 27.7888 1.01205 27.5217C0.957855 26.9024 0.963671 26.285 0.973348 25.7624C1.00625 24.2721 1.17271 22.7296 1.46689 21.1793C1.87913 19.0078 2.53329 16.9059 3.41003 14.9299C4.50548 12.4622 5.9551 10.1862 7.71633 8.1656C9.02467 6.66372 10.5053 5.27216 12.1194 4.02962C13.6077 2.88192 15.3535 1.61229 17.2618 1.05101C17.8212 0.886504 18.2179 0.961984 18.4405 1.27359C18.7985 1.77679 18.5489 2.46193 18.154 3.37351C18.0592 3.59222 17.9702 3.80124 17.8986 4.00252C17.4418 5.28183 17.0818 6.61146 16.8263 7.95464C15.729 13.7125 16.5863 19.9 19.2379 25.3734C20.2211 27.4017 21.5217 29.3991 23.1068 31.3074C23.8538 32.2073 24.6899 33.0338 25.497 33.8331C26.2731 34.6015 27.0744 35.395 27.775 36.2349C28.884 37.5646 29.422 39.171 29.422 41.149C29.422 47.1778 29.4375 53.2472 29.4588 59.009C18.3379 57.6581 10.2033 52.5699 5.28159 43.874C1.54623 37.2743 1.16495 30.9532 1.16108 30.8893C1.14753 30.6222 0.91915 30.419 0.652063 30.4326C0.384975 30.4461 0.179824 30.6745 0.195307 30.9416C0.208855 31.2067 0.584341 37.522 4.42034 44.3153C6.6751 48.3119 9.6653 51.6292 13.3058 54.1724C17.7553 57.2826 23.1919 59.2354 29.4627 59.9825C29.4762 63.5785 29.4917 67.0429 29.5072 70.2905L29.511 71.1673C29.5149 71.8776 29.5188 72.6846 29.7607 73.4433C30.0646 74.3936 30.9297 75.5858 33.3296 75.8723C33.7903 75.9265 34.5799 76 35.5457 76C37.8682 76 41.2164 75.5839 43.4964 73.513C45.3911 71.7905 46.4769 69.0306 46.475 65.9378C46.475 65.9165 46.475 65.8952 46.475 65.8739C46.6414 65.8836 46.8369 65.8913 47.0614 65.8913C48.9988 65.8913 52.8328 65.3552 54.7528 61.3973C54.8689 61.1573 54.7682 60.867 54.5282 60.7509C54.2882 60.6347 53.9979 60.7354 53.8818 60.9754C51.9329 64.9952 47.8162 65.0204 46.473 64.912C46.4711 63.9133 46.4692 62.9146 46.4653 61.914C46.4595 60.4663 46.4556 59.0167 46.4556 57.569V53.1234C46.4556 52.8563 46.2389 52.6395 45.9718 52.6395C45.7047 52.6395 45.4879 52.8563 45.4879 53.1234V57.569C45.4879 59.0187 45.4937 60.4683 45.4976 61.9179C45.5015 63.0095 45.5034 64.103 45.5053 65.1946C45.4976 65.2159 45.4918 65.2372 45.4879 65.2604C45.4744 65.3397 45.484 65.4171 45.5073 65.4888C45.5073 65.6397 45.5092 65.7887 45.5092 65.9397C45.5111 68.717 44.5163 71.2815 42.848 72.7969C40.5255 74.9084 36.4689 75.2742 33.4477 74.9123C31.9323 74.7304 31.0033 74.1381 30.6859 73.1491C30.4884 72.5298 30.4846 71.835 30.4807 71.1615L30.4768 70.2847C30.4342 61.5734 30.3917 51.2983 30.3917 41.147C30.3917 38.9348 29.7801 37.1233 28.5201 35.6137C27.7905 34.7389 26.9718 33.9279 26.1802 33.1441C25.9344 32.9002 25.6867 32.6544 25.4389 32.4048C27.0318 31.4351 28.913 30.6377 30.6917 30.1926C31.7581 29.9255 33.3393 29.7242 34.816 30.2797C36.4631 30.9009 37.454 32.426 37.7714 34.8124M62.597 37.9439C61.0467 42.2754 58.67 45.7688 55.525 48.3468C55.4805 47.6945 55.4147 47.0442 55.3198 46.3959C54.9057 43.5663 54.0966 41.3386 52.8115 39.5135C54.8766 38.5691 56.8643 37.4272 58.79 36.3182C59.1171 36.1304 59.4442 35.9408 59.7713 35.755C59.8584 35.7046 59.9455 35.6543 60.0306 35.604C60.9074 35.0892 61.3603 34.8627 62.0667 35.2943C63.1912 35.9833 62.7557 37.4968 62.597 37.9439Z" fill="#273045"/>
</svg>
